<svg width="19" height="21" viewBox="0 0 19 21" fill="none" xmlns="http://www.w3.org/2000/svg">
<path d="M5.31982 0H2.69472C1.25163 0 0.0700073 1.182 0.0700073 2.6251V18.3749C0.0700073 19.818 1.25163 21 2.69472 21H5.31982C6.76291 21 7.94491 19.818 7.94491 18.3749V2.6251C7.94491 1.182 6.76291 0 5.31982 0Z" fill="#7B00FF"/>
<path d="M15.8198 0H13.1947C11.7516 0 10.5696 1.182 10.5696 2.6251V18.3749C10.5696 19.818 11.7516 21 13.1947 21H15.8198C17.2629 21 18.4445 19.818 18.4445 18.3749V2.6251C18.4445 1.182 17.2629 0 15.8198 0Z" fill="#7B00FF"/>
</svg>
