<svg width="34" height="26" viewBox="0 0 34 26" fill="none" xmlns="http://www.w3.org/2000/svg">
<path d="M17.2231 23.202C17.2231 23.7785 16.8872 24.3023 16.3615 24.5468C16.1583 24.6421 15.9405 24.6882 15.7241 24.6882C15.3815 24.6882 15.0421 24.5714 14.7679 24.3459L6.57516 17.6129H2.21172C1.38422 17.6136 0.713135 16.9477 0.713135 16.127V10.2055C0.713135 9.38448 1.38422 8.71892 2.21172 8.71892H6.57551L14.7682 1.9859C15.2159 1.61794 15.8366 1.53949 16.3619 1.78573C16.8872 2.03022 17.2234 2.55437 17.2234 3.13058L17.2231 23.202ZM22.9822 20.8795C22.9457 20.882 22.9106 20.8834 22.8744 20.8834C22.4786 20.8834 22.0969 20.7283 21.8149 20.4482L21.6145 20.2488C21.0889 19.7285 21.0272 18.9043 21.4698 18.3126C22.5921 16.8119 23.1844 15.033 23.1844 13.1668C23.1844 11.1596 22.5119 9.27684 21.2393 7.72198C20.7548 7.131 20.7994 6.27266 21.3425 5.73444L21.5425 5.53569C21.8419 5.23878 22.243 5.07697 22.6772 5.10265C23.1 5.12375 23.4948 5.3211 23.7629 5.64614C25.5282 7.78847 26.4607 10.3895 26.4607 13.1671C26.4607 15.7541 25.636 18.2166 24.0754 20.2871C23.8147 20.6322 23.416 20.8489 22.9822 20.8795ZM29.178 25.4727C28.907 25.7903 28.5151 25.981 28.0955 25.9986C28.0749 25.9993 28.054 26 28.0327 26C27.6358 26 27.2549 25.8445 26.9729 25.5648L26.776 25.3696C26.2259 24.8244 26.1887 23.9523 26.6888 23.362C29.1057 20.5112 30.4372 16.8907 30.4372 13.1668C30.4372 9.29337 29.0117 5.56453 26.4242 2.66729C25.8996 2.07912 25.9262 1.18877 26.4845 0.632959L26.681 0.437723C26.9725 0.147154 27.3513 -0.0129043 27.7858 0.00081501C28.1984 0.0124237 28.5885 0.193237 28.8627 0.499284C31.9904 3.99173 33.7131 8.49097 33.7131 13.1668C33.7138 17.6657 32.1032 22.0362 29.178 25.4727Z" fill="url(#paint0_linear_87_2593)"/>
<defs>
<linearGradient id="paint0_linear_87_2593" x1="4.13138" y1="5.71342" x2="29.1038" y2="34.7337" gradientUnits="userSpaceOnUse">
<stop stop-color="#FEF0A3"/>
<stop offset="1" stop-color="#F08B5A"/>
</linearGradient>
</defs>
</svg>
