<svg width="28" height="30" viewBox="0 0 28 30" fill="none" xmlns="http://www.w3.org/2000/svg">
<path d="M27.8987 1.70642C27.8986 0.796874 27.1068 0.0899758 26.2031 0.192674L7.47878 2.32046C6.70887 2.40795 6.12726 3.05939 6.12726 3.83426V18.5821C6.12726 18.9956 5.75904 19.309 5.34558 19.309C2.39798 19.309 0 21.7069 0 24.6544C0 27.602 2.39798 30 5.34558 30C8.23849 30 10.6004 27.6895 10.6869 24.8172C10.6869 24.8163 10.6876 24.8156 10.6885 24.8156C10.6894 24.8156 10.6901 24.8149 10.6901 24.814V10.2249C10.6901 9.45006 11.2717 8.79862 12.0416 8.71113L21.6402 7.62031C22.5439 7.5176 23.3358 8.22453 23.3358 9.1341V16.6125C23.3358 17.0271 22.9664 17.3413 22.5518 17.3413C19.6042 17.3413 17.2063 19.7392 17.2063 22.6867C17.2063 25.6343 19.6042 28.0323 22.5518 28.0323C25.4412 28.0323 27.8399 25.7309 27.8994 22.8601L27.8987 1.70642Z" fill="url(#paint0_linear_87_2591)"/>
<defs>
<linearGradient id="paint0_linear_87_2591" x1="2.74943" y1="-0.427843" x2="30.5592" y2="38.5058" gradientUnits="userSpaceOnUse">
<stop stop-color="#FEF0A3"/>
<stop offset="1" stop-color="#F08B5A"/>
</linearGradient>
</defs>
</svg>
